<?xml version="1.0" encoding="utf-8"?>
<svg viewBox="201.973 189.47 130 192.816" xmlns="http://www.w3.org/2000/svg">
  <path id="XMLID_933_" d="M 326.892 201.126 L 301.575 201.126 L 301.575 265.311 C 296.31 263.146 290.511 262.002 284.44 262.002 C 269.707 262.002 254.678 268.582 243.208 280.051 C 221.82 301.438 219.144 333.561 237.24 351.66 C 245.032 359.451 255.82 363.741 267.617 363.741 C 282.351 363.741 297.378 357.161 308.848 345.692 C 318.843 335.697 325.142 323.039 326.586 310.051 C 326.793 308.195 326.892 304.532 326.892 304.532 L 326.892 201.126 Z M 301.424 307.254 C 300.624 314.447 296.807 321.933 290.947 327.79 C 284.289 334.448 275.567 338.425 267.617 338.425 C 264.055 338.425 259 337.615 255.143 333.759 C 247.058 325.671 249.79 309.275 261.11 297.955 C 267.769 291.296 276.49 287.319 284.44 287.319 C 288.003 287.319 293.058 288.129 296.915 291.985 C 301.774 296.845 301.825 303.639 301.424 307.254 Z" style="fill: rgb(255, 255, 255); stroke: rgb(0, 0, 0);"/>
</svg>